<svg width="1025" height="317" xmlns="http://www.w3.org/2000/svg" xmlns:xlink="http://www.w3.org/1999/xlink" overflow="hidden"><defs><clipPath id="clip0"><rect x="120" y="205" width="1025" height="317"/></clipPath></defs><g clip-path="url(#clip0)" transform="translate(-120 -205)"><path d="M120 359 1037 359 1037 305 1145 413.001 1037 521 1037 467 120 467Z" fill="#8FAADC" fill-rule="evenodd"/><text font-family="Malgun Gothic,Malgun Gothic_MSFontService,sans-serif" font-weight="400" font-size="24" transform="translate(167.309 394)">Edit<tspan font-size="24" x="-24.2533" y="28">Compile</tspan><tspan font-size="24" x="-15.8333" y="57">Debug</tspan><tspan font-size="24" x="113.336" y="28">Presubmi</tspan>t<tspan font-size="24" x="287.613" y="14">Post</tspan>-<tspan font-size="24" x="277.753" y="42">submit</tspan><tspan font-size="24" x="421.206" y="14">Release </tspan><tspan font-size="24" x="408.772" y="42">candidate</tspan><tspan font-size="24" x="590.057" y="14">RC </tspan><tspan font-size="24" x="542.297" y="42">promotions</tspan><tspan font-size="24" x="703.841" y="14">Final</tspan><tspan font-size="24" x="762.341" y="14">RC</tspan><tspan font-size="24" x="690.501" y="42">promotio</tspan>n</text><rect x="468.5" y="206.5" width="158" height="83" stroke="#2F528F" stroke-width="1.33333" stroke-miterlimit="8" fill="#4472C4"/><text fill="#FFFFFF" font-family="Malgun Gothic,Malgun Gothic_MSFontService,sans-serif" font-style="oblique" font-weight="700" font-size="24" transform="translate(481.26 243)">Continuous <tspan font-size="24" x="36.3333" y="28">build</tspan></text><rect x="637.5" y="206.5" width="158" height="83" stroke="#2F528F" stroke-width="1.33333" stroke-miterlimit="8" fill="#4472C4"/><text fill="#FFFFFF" font-family="Malgun Gothic,Malgun Gothic_MSFontService,sans-serif" font-style="oblique" font-weight="700" font-size="24" transform="translate(650.571 243)">Continuous <tspan font-size="24" x="20.0267" y="28">delivery</tspan></text><path d="M0 25.5C3.8194e-15 37.128 7.40356 47.2833 18 50.1903L18 47.1903 24 54 18 59.1903 18 56.1903C7.40356 53.2833 2.24963e-06 43.128 2.24963e-06 31.5Z" fill="#4472C4" fill-rule="evenodd" transform="matrix(1 0 0 -1 493.5 353.5)"/><path d="M24 6C11.8374 6 1.59757 15.6669 0.166668 28.5-1.39272 14.5145 8.01369 1.83394 21.1765 0.177093 22.1136 0.0591385 23.0564 7.50427e-06 24 7.50427e-06Z" fill="#375C9E" fill-rule="evenodd" transform="matrix(1 0 0 -1 493.5 353.5)"/><path d="M0 25.5C3.8194e-15 37.128 7.40356 47.2833 18 50.1903L18 47.1903 24 54 18 59.1903 18 56.1903C7.40356 53.2833 2.24963e-06 43.128 2.24963e-06 31.5L0 25.5C-3.8194e-15 11.4167 10.7452-3.8194e-15 24-3.8194e-15L24 6C11.8374 6 1.59757 15.6669 0.166668 28.5" stroke="#2F528F" stroke-width="1.33333" stroke-miterlimit="8" fill="none" fill-rule="evenodd" transform="matrix(1 0 0 -1 493.5 353.5)"/><path d="M0 25.5C3.8194e-15 37.128 7.40356 47.2833 18 50.1903L18 47.1903 24 54 18 59.1903 18 56.1903C7.40356 53.2833 2.24963e-06 43.128 2.24963e-06 31.5Z" fill="#4472C4" fill-rule="evenodd" transform="matrix(-1 0 0 1 600.5 292.5)"/><path d="M24 6C11.8374 6 1.59757 15.6669 0.166668 28.5-1.39272 14.5145 8.01369 1.83394 21.1765 0.177093 22.1136 0.0591385 23.0564 7.50427e-06 24 7.50427e-06Z" fill="#375C9E" fill-rule="evenodd" transform="matrix(-1 0 0 1 600.5 292.5)"/><path d="M0 25.5C3.8194e-15 37.128 7.40356 47.2833 18 50.1903L18 47.1903 24 54 18 59.1903 18 56.1903C7.40356 53.2833 2.24963e-06 43.128 2.24963e-06 31.5L0 25.5C-3.8194e-15 11.4167 10.7452-3.8194e-15 24-3.8194e-15L24 6C11.8374 6 1.59757 15.6669 0.166668 28.5" stroke="#2F528F" stroke-width="1.33333" stroke-miterlimit="8" fill="none" fill-rule="evenodd" transform="matrix(-1 0 0 1 600.5 292.5)"/><path d="M0 25.6875C7.6388e-15 37.401 7.09507 47.631 17.25 50.5594L17.25 47.6843 23 54.25 17.25 59.1843 17.25 56.3093C7.09508 53.3809 5.69355e-06 43.1509 5.69355e-06 31.4375Z" fill="#4472C4" fill-rule="evenodd" transform="matrix(1 0 0 -1 663.5 353.5)"/><path d="M23 5.75C11.2935 5.75 1.45472 15.5703 0.144509 28.5625-1.27719 14.4648 7.80305 1.74921 20.4258 0.161394 21.2805 0.0538824 22.1399-5.77093e-07 23-5.77093e-07Z" fill="#375C9E" fill-rule="evenodd" transform="matrix(1 0 0 -1 663.5 353.5)"/><path d="M0 25.6875C7.6388e-15 37.401 7.09507 47.631 17.25 50.5594L17.25 47.6843 23 54.25 17.25 59.1843 17.25 56.3093C7.09508 53.3809 5.69355e-06 43.1509 5.69355e-06 31.4375L0 25.6875C-3.8194e-15 11.5007 10.2975-3.8194e-15 23-3.8194e-15L23 5.75C11.2935 5.75 1.45472 15.5703 0.144509 28.5625" stroke="#2F528F" stroke-width="1.33333" stroke-miterlimit="8" fill="none" fill-rule="evenodd" transform="matrix(1 0 0 -1 663.5 353.5)"/><path d="M0 25.5C3.8194e-15 37.128 7.40356 47.2833 18 50.1903L18 47.1903 24 54 18 59.1903 18 56.1903C7.40356 53.2833 2.24963e-06 43.128 2.24963e-06 31.5Z" fill="#4472C4" fill-rule="evenodd" transform="matrix(-1 0 0 1 769.5 292.5)"/><path d="M24 6C11.8374 6 1.59757 15.6669 0.166668 28.5-1.39272 14.5145 8.01369 1.83394 21.1765 0.177093 22.1136 0.0591385 23.0564 7.50427e-06 24 7.50427e-06Z" fill="#375C9E" fill-rule="evenodd" transform="matrix(-1 0 0 1 769.5 292.5)"/><path d="M0 25.5C3.8194e-15 37.128 7.40356 47.2833 18 50.1903L18 47.1903 24 54 18 59.1903 18 56.1903C7.40356 53.2833 2.24963e-06 43.128 2.24963e-06 31.5L0 25.5C-3.8194e-15 11.4167 10.7452-3.8194e-15 24-3.8194e-15L24 6C11.8374 6 1.59757 15.6669 0.166668 28.5" stroke="#2F528F" stroke-width="1.33333" stroke-miterlimit="8" fill="none" fill-rule="evenodd" transform="matrix(-1 0 0 1 769.5 292.5)"/></g></svg>